<svg width="48" height="48" viewBox="0 0 48 48" fill="none" xmlns="http://www.w3.org/2000/svg">
<rect width="48" height="48" rx="8" fill="white"/>
<path d="M31.255 16.768C31.723 17.002 31.993 17.371 32.065 17.875C32.155 18.379 32.029 18.838 31.687 19.252C31.453 19.576 31.147 19.756 30.769 19.792C30.409 19.828 30.04 19.756 29.662 19.576C29.23 19.378 28.771 19.225 28.285 19.117C27.817 19.009 27.322 18.955 26.8 18.955C25.828 18.955 24.955 19.108 24.181 19.414C23.425 19.72 22.777 20.161 22.237 20.737C21.697 21.295 21.283 21.961 20.995 22.735C20.725 23.509 20.59 24.364 20.59 25.3C20.59 26.398 20.743 27.352 21.049 28.162C21.373 28.972 21.814 29.647 22.372 30.187C22.93 30.727 23.587 31.132 24.343 31.402C25.099 31.654 25.918 31.78 26.8 31.78C27.286 31.78 27.772 31.735 28.258 31.645C28.744 31.555 29.212 31.393 29.662 31.159C30.04 30.979 30.409 30.916 30.769 30.97C31.147 31.024 31.462 31.213 31.714 31.537C32.074 31.987 32.2 32.455 32.092 32.941C32.002 33.409 31.732 33.751 31.282 33.967C30.814 34.201 30.328 34.399 29.824 34.561C29.338 34.705 28.843 34.813 28.339 34.885C27.835 34.975 27.322 35.02 26.8 35.02C25.504 35.02 24.271 34.813 23.101 34.399C21.949 33.985 20.914 33.373 19.996 32.563C19.096 31.753 18.385 30.745 17.863 29.539C17.341 28.315 17.08 26.902 17.08 25.3C17.08 23.914 17.314 22.636 17.782 21.466C18.268 20.296 18.943 19.288 19.807 18.442C20.689 17.578 21.724 16.912 22.912 16.444C24.1 15.958 25.396 15.715 26.8 15.715C27.592 15.715 28.366 15.805 29.122 15.985C29.878 16.165 30.589 16.426 31.255 16.768Z" fill="#204991"/>
<path d="M27.7 34.804C27.7 35.428 27.472 35.956 27.016 36.388C26.56 36.796 26.032 37 25.432 37C24.76 37 24.22 36.796 23.812 36.388C23.404 35.956 23.2 35.428 23.2 34.804V13.996C23.2 13.372 23.416 12.856 23.848 12.448C24.28 12.016 24.832 11.8 25.504 11.8C26.08 11.8 26.584 12.016 27.016 12.448C27.472 12.856 27.7 13.372 27.7 13.996V34.804Z" fill="#204991"/>
<circle cx="25" cy="8.75" r="2.25" fill="#F3924F"/>
</svg>
