<svg width="231" height="48" viewBox="0 0 231 48" fill="none" xmlns="http://www.w3.org/2000/svg">
<rect width="48" height="48" rx="8" fill="#1D319A"/>
<path d="M31.255 16.768C31.723 17.002 31.993 17.371 32.065 17.875C32.155 18.379 32.029 18.838 31.687 19.252C31.453 19.576 31.147 19.756 30.769 19.792C30.409 19.828 30.04 19.756 29.662 19.576C29.23 19.378 28.771 19.225 28.285 19.117C27.817 19.009 27.322 18.955 26.8 18.955C25.828 18.955 24.955 19.108 24.181 19.414C23.425 19.72 22.777 20.161 22.237 20.737C21.697 21.295 21.283 21.961 20.995 22.735C20.725 23.509 20.59 24.364 20.59 25.3C20.59 26.398 20.743 27.352 21.049 28.162C21.373 28.972 21.814 29.647 22.372 30.187C22.93 30.727 23.587 31.132 24.343 31.402C25.099 31.654 25.918 31.78 26.8 31.78C27.286 31.78 27.772 31.735 28.258 31.645C28.744 31.555 29.212 31.393 29.662 31.159C30.04 30.979 30.409 30.916 30.769 30.97C31.147 31.024 31.462 31.213 31.714 31.537C32.074 31.987 32.2 32.455 32.092 32.941C32.002 33.409 31.732 33.751 31.282 33.967C30.814 34.201 30.328 34.399 29.824 34.561C29.338 34.705 28.843 34.813 28.339 34.885C27.835 34.975 27.322 35.02 26.8 35.02C25.504 35.02 24.271 34.813 23.101 34.399C21.949 33.985 20.914 33.373 19.996 32.563C19.096 31.753 18.385 30.745 17.863 29.539C17.341 28.315 17.08 26.902 17.08 25.3C17.08 23.914 17.314 22.636 17.782 21.466C18.268 20.296 18.943 19.288 19.807 18.442C20.689 17.578 21.724 16.912 22.912 16.444C24.1 15.958 25.396 15.715 26.8 15.715C27.592 15.715 28.366 15.805 29.122 15.985C29.878 16.165 30.589 16.426 31.255 16.768Z" fill="#F7F9FD"/>
<path d="M27.7 34.804C27.7 35.428 27.472 35.956 27.016 36.388C26.56 36.796 26.032 37 25.432 37C24.76 37 24.22 36.796 23.812 36.388C23.404 35.956 23.2 35.428 23.2 34.804V13.996C23.2 13.372 23.416 12.856 23.848 12.448C24.28 12.016 24.832 11.8 25.504 11.8C26.08 11.8 26.584 12.016 27.016 12.448C27.472 12.856 27.7 13.372 27.7 13.996V34.804Z" fill="#F7F9FD"/>
<circle cx="25" cy="8.75" r="2.25" fill="#F3924F"/>
<path d="M56.814 24.322C56.814 22.826 57.1587 21.484 57.848 20.296C58.552 19.108 59.498 18.184 60.686 17.524C61.8887 16.8493 63.2013 16.512 64.624 16.512C66.252 16.512 67.6967 16.9153 68.958 17.722C70.234 18.514 71.158 19.6433 71.73 21.11H68.716C68.32 20.3033 67.77 19.702 67.066 19.306C66.362 18.91 65.548 18.712 64.624 18.712C63.612 18.712 62.71 18.9393 61.918 19.394C61.126 19.8487 60.5027 20.5013 60.048 21.352C59.608 22.2027 59.388 23.1927 59.388 24.322C59.388 25.4513 59.608 26.4413 60.048 27.292C60.5027 28.1427 61.126 28.8027 61.918 29.272C62.71 29.7267 63.612 29.954 64.624 29.954C65.548 29.954 66.362 29.756 67.066 29.36C67.77 28.964 68.32 28.3627 68.716 27.556H71.73C71.158 29.0227 70.234 30.152 68.958 30.944C67.6967 31.736 66.252 32.132 64.624 32.132C63.1867 32.132 61.874 31.802 60.686 31.142C59.498 30.4673 58.552 29.536 57.848 28.348C57.1587 27.16 56.814 25.818 56.814 24.322ZM79.9236 32.198C78.7796 32.198 77.7456 31.9413 76.8216 31.428C75.8976 30.9 75.1716 30.1667 74.6436 29.228C74.1156 28.2747 73.8516 27.1747 73.8516 25.928C73.8516 24.696 74.123 23.6033 74.6656 22.65C75.2083 21.6967 75.949 20.9633 76.8876 20.45C77.8263 19.9367 78.875 19.68 80.0336 19.68C81.1923 19.68 82.241 19.9367 83.1796 20.45C84.1183 20.9633 84.859 21.6967 85.4016 22.65C85.9443 23.6033 86.2156 24.696 86.2156 25.928C86.2156 27.16 85.937 28.2527 85.3796 29.206C84.8223 30.1593 84.0596 30.9 83.0916 31.428C82.1383 31.9413 81.0823 32.198 79.9236 32.198ZM79.9236 30.02C80.569 30.02 81.1703 29.866 81.7276 29.558C82.2996 29.25 82.7616 28.788 83.1136 28.172C83.4656 27.556 83.6416 26.808 83.6416 25.928C83.6416 25.048 83.473 24.3073 83.1356 23.706C82.7983 23.09 82.351 22.628 81.7936 22.32C81.2363 22.012 80.635 21.858 79.9896 21.858C79.3443 21.858 78.743 22.012 78.1856 22.32C77.643 22.628 77.2103 23.09 76.8876 23.706C76.565 24.3073 76.4036 25.048 76.4036 25.928C76.4036 27.2333 76.7336 28.2453 77.3936 28.964C78.0683 29.668 78.9116 30.02 79.9236 30.02ZM93.9529 32.198C92.8089 32.198 91.7749 31.9413 90.8509 31.428C89.9269 30.9 89.2009 30.1667 88.6729 29.228C88.1449 28.2747 87.8809 27.1747 87.8809 25.928C87.8809 24.696 88.1523 23.6033 88.6949 22.65C89.2376 21.6967 89.9783 20.9633 90.9169 20.45C91.8556 19.9367 92.9043 19.68 94.0629 19.68C95.2216 19.68 96.2703 19.9367 97.2089 20.45C98.1476 20.9633 98.8883 21.6967 99.4309 22.65C99.9736 23.6033 100.245 24.696 100.245 25.928C100.245 27.16 99.9663 28.2527 99.4089 29.206C98.8516 30.1593 98.0889 30.9 97.1209 31.428C96.1676 31.9413 95.1116 32.198 93.9529 32.198ZM93.9529 30.02C94.5983 30.02 95.1996 29.866 95.7569 29.558C96.3289 29.25 96.7909 28.788 97.1429 28.172C97.4949 27.556 97.6709 26.808 97.6709 25.928C97.6709 25.048 97.5023 24.3073 97.1649 23.706C96.8276 23.09 96.3803 22.628 95.8229 22.32C95.2656 22.012 94.6643 21.858 94.0189 21.858C93.3736 21.858 92.7723 22.012 92.2149 22.32C91.6723 22.628 91.2396 23.09 90.9169 23.706C90.5943 24.3073 90.4329 25.048 90.4329 25.928C90.4329 27.2333 90.7629 28.2453 91.4229 28.964C92.0976 29.668 92.9409 30.02 93.9529 30.02ZM107.52 25.95L113.108 32H109.72L105.232 26.786V32H102.724V15.72H105.232V25.18L109.632 19.878H113.108L107.52 25.95ZM126.016 25.642C126.016 26.0967 125.987 26.5073 125.928 26.874H116.666C116.739 27.842 117.099 28.6193 117.744 29.206C118.389 29.7927 119.181 30.086 120.12 30.086C121.469 30.086 122.423 29.5213 122.98 28.392H125.686C125.319 29.5067 124.652 30.4233 123.684 31.142C122.731 31.846 121.543 32.198 120.12 32.198C118.961 32.198 117.92 31.9413 116.996 31.428C116.087 30.9 115.368 30.1667 114.84 29.228C114.327 28.2747 114.07 27.1747 114.07 25.928C114.07 24.6813 114.319 23.5887 114.818 22.65C115.331 21.6967 116.043 20.9633 116.952 20.45C117.876 19.9367 118.932 19.68 120.12 19.68C121.264 19.68 122.283 19.9293 123.178 20.428C124.073 20.9267 124.769 21.6307 125.268 22.54C125.767 23.4347 126.016 24.4687 126.016 25.642ZM123.398 24.85C123.383 23.926 123.053 23.1853 122.408 22.628C121.763 22.0707 120.963 21.792 120.01 21.792C119.145 21.792 118.404 22.0707 117.788 22.628C117.172 23.1707 116.805 23.9113 116.688 24.85H123.398ZM127.648 25.884C127.648 24.6667 127.897 23.5887 128.396 22.65C128.909 21.7113 129.599 20.9853 130.464 20.472C131.344 19.944 132.319 19.68 133.39 19.68C134.182 19.68 134.959 19.856 135.722 20.208C136.499 20.5453 137.115 21 137.57 21.572V15.72H140.1V32H137.57V30.174C137.159 30.7607 136.587 31.2447 135.854 31.626C135.135 32.0073 134.307 32.198 133.368 32.198C132.312 32.198 131.344 31.934 130.464 31.406C129.599 30.8633 128.909 30.1153 128.396 29.162C127.897 28.194 127.648 27.1013 127.648 25.884ZM137.57 25.928C137.57 25.092 137.394 24.366 137.042 23.75C136.705 23.134 136.257 22.6647 135.7 22.342C135.143 22.0193 134.541 21.858 133.896 21.858C133.251 21.858 132.649 22.0193 132.092 22.342C131.535 22.65 131.08 23.112 130.728 23.728C130.391 24.3293 130.222 25.048 130.222 25.884C130.222 26.72 130.391 27.4533 130.728 28.084C131.08 28.7147 131.535 29.1987 132.092 29.536C132.664 29.8587 133.265 30.02 133.896 30.02C134.541 30.02 135.143 29.8587 135.7 29.536C136.257 29.2133 136.705 28.744 137.042 28.128C137.394 27.4973 137.57 26.764 137.57 25.928ZM151.617 16.71V32H149.109V16.71H151.617ZM161.026 19.68C161.979 19.68 162.83 19.878 163.578 20.274C164.34 20.67 164.934 21.2567 165.36 22.034C165.785 22.8113 165.998 23.75 165.998 24.85V32H163.512V25.224C163.512 24.1387 163.24 23.31 162.698 22.738C162.155 22.1513 161.414 21.858 160.476 21.858C159.537 21.858 158.789 22.1513 158.232 22.738C157.689 23.31 157.418 24.1387 157.418 25.224V32H154.91V19.878H157.418V21.264C157.828 20.7653 158.349 20.3767 158.98 20.098C159.625 19.8193 160.307 19.68 161.026 19.68ZM168.361 25.884C168.361 24.6667 168.61 23.5887 169.109 22.65C169.622 21.7113 170.312 20.9853 171.177 20.472C172.057 19.944 173.032 19.68 174.103 19.68C174.895 19.68 175.672 19.856 176.435 20.208C177.212 20.5453 177.828 21 178.283 21.572V15.72H180.813V32H178.283V30.174C177.872 30.7607 177.3 31.2447 176.567 31.626C175.848 32.0073 175.02 32.198 174.081 32.198C173.025 32.198 172.057 31.934 171.177 31.406C170.312 30.8633 169.622 30.1153 169.109 29.162C168.61 28.194 168.361 27.1013 168.361 25.884ZM178.283 25.928C178.283 25.092 178.107 24.366 177.755 23.75C177.418 23.134 176.97 22.6647 176.413 22.342C175.856 22.0193 175.254 21.858 174.609 21.858C173.964 21.858 173.362 22.0193 172.805 22.342C172.248 22.65 171.793 23.112 171.441 23.728C171.104 24.3293 170.935 25.048 170.935 25.884C170.935 26.72 171.104 27.4533 171.441 28.084C171.793 28.7147 172.248 29.1987 172.805 29.536C173.377 29.8587 173.978 30.02 174.609 30.02C175.254 30.02 175.856 29.8587 176.413 29.536C176.97 29.2133 177.418 28.744 177.755 28.128C178.107 27.4973 178.283 26.764 178.283 25.928ZM189.365 32.198C188.221 32.198 187.187 31.9413 186.263 31.428C185.339 30.9 184.613 30.1667 184.085 29.228C183.557 28.2747 183.293 27.1747 183.293 25.928C183.293 24.696 183.564 23.6033 184.107 22.65C184.65 21.6967 185.39 20.9633 186.329 20.45C187.268 19.9367 188.316 19.68 189.475 19.68C190.634 19.68 191.682 19.9367 192.621 20.45C193.56 20.9633 194.3 21.6967 194.843 22.65C195.386 23.6033 195.657 24.696 195.657 25.928C195.657 27.16 195.378 28.2527 194.821 29.206C194.264 30.1593 193.501 30.9 192.533 31.428C191.58 31.9413 190.524 32.198 189.365 32.198ZM189.365 30.02C190.01 30.02 190.612 29.866 191.169 29.558C191.741 29.25 192.203 28.788 192.555 28.172C192.907 27.556 193.083 26.808 193.083 25.928C193.083 25.048 192.914 24.3073 192.577 23.706C192.24 23.09 191.792 22.628 191.235 22.32C190.678 22.012 190.076 21.858 189.431 21.858C188.786 21.858 188.184 22.012 187.627 22.32C187.084 22.628 186.652 23.09 186.329 23.706C186.006 24.3073 185.845 25.048 185.845 25.928C185.845 27.2333 186.175 28.2453 186.835 28.964C187.51 29.668 188.353 30.02 189.365 30.02ZM203.394 32.198C202.25 32.198 201.216 31.9413 200.292 31.428C199.368 30.9 198.642 30.1667 198.114 29.228C197.586 28.2747 197.322 27.1747 197.322 25.928C197.322 24.696 197.594 23.6033 198.136 22.65C198.679 21.6967 199.42 20.9633 200.358 20.45C201.297 19.9367 202.346 19.68 203.504 19.68C204.663 19.68 205.712 19.9367 206.65 20.45C207.589 20.9633 208.33 21.6967 208.872 22.65C209.415 23.6033 209.686 24.696 209.686 25.928C209.686 27.16 209.408 28.2527 208.85 29.206C208.293 30.1593 207.53 30.9 206.562 31.428C205.609 31.9413 204.553 32.198 203.394 32.198ZM203.394 30.02C204.04 30.02 204.641 29.866 205.198 29.558C205.77 29.25 206.232 28.788 206.584 28.172C206.936 27.556 207.112 26.808 207.112 25.928C207.112 25.048 206.944 24.3073 206.606 23.706C206.269 23.09 205.822 22.628 205.264 22.32C204.707 22.012 204.106 21.858 203.46 21.858C202.815 21.858 202.214 22.012 201.656 22.32C201.114 22.628 200.681 23.09 200.358 23.706C200.036 24.3073 199.874 25.048 199.874 25.928C199.874 27.2333 200.204 28.2453 200.864 28.964C201.539 29.668 202.382 30.02 203.394 30.02ZM214.674 21.638C215.04 21.022 215.524 20.5453 216.126 20.208C216.742 19.856 217.468 19.68 218.304 19.68V22.276H217.666C216.683 22.276 215.935 22.5253 215.422 23.024C214.923 23.5227 214.674 24.388 214.674 25.62V32H212.166V19.878H214.674V21.638ZM225.009 32.198C224.056 32.198 223.198 32.0293 222.435 31.692C221.687 31.34 221.093 30.8707 220.653 30.284C220.213 29.6827 219.978 29.0153 219.949 28.282H222.545C222.589 28.7953 222.831 29.228 223.271 29.58C223.726 29.9173 224.29 30.086 224.965 30.086C225.669 30.086 226.212 29.954 226.593 29.69C226.989 29.4113 227.187 29.0593 227.187 28.634C227.187 28.1793 226.967 27.842 226.527 27.622C226.102 27.402 225.42 27.16 224.481 26.896C223.572 26.6467 222.831 26.4047 222.259 26.17C221.687 25.9353 221.188 25.576 220.763 25.092C220.352 24.608 220.147 23.97 220.147 23.178C220.147 22.5327 220.338 21.946 220.719 21.418C221.1 20.8753 221.643 20.45 222.347 20.142C223.066 19.834 223.887 19.68 224.811 19.68C226.19 19.68 227.297 20.032 228.133 20.736C228.984 21.4253 229.438 22.3713 229.497 23.574H226.989C226.945 23.0313 226.725 22.5987 226.329 22.276C225.933 21.9533 225.398 21.792 224.723 21.792C224.063 21.792 223.557 21.9167 223.205 22.166C222.853 22.4153 222.677 22.7453 222.677 23.156C222.677 23.4787 222.794 23.75 223.029 23.97C223.264 24.19 223.55 24.366 223.887 24.498C224.224 24.6153 224.723 24.7693 225.383 24.96C226.263 25.1947 226.982 25.4367 227.539 25.686C228.111 25.9207 228.602 26.2727 229.013 26.742C229.424 27.2113 229.636 27.8347 229.651 28.612C229.651 29.3013 229.46 29.9173 229.079 30.46C228.698 31.0027 228.155 31.428 227.451 31.736C226.762 32.044 225.948 32.198 225.009 32.198Z" fill="#1D319A"/>
</svg>
